<mxfile host="Electron" modified="2023-10-17T11:40:35.799Z" agent="Mozilla/5.0 (Windows NT 10.0; Win64; x64) AppleWebKit/537.36 (KHTML, like Gecko) draw.io/22.0.2 Chrome/114.0.5735.289 Electron/25.8.4 Safari/537.36" etag="6rfvSkLoQmpYxmOK_igE" version="22.0.2" type="device">
  <diagram id="C5RBs43oDa-KdzZeNtuy" name="Page-1">
    <mxGraphModel dx="1036" dy="614" grid="1" gridSize="10" guides="1" tooltips="1" connect="1" arrows="1" fold="1" page="1" pageScale="1" pageWidth="827" pageHeight="1169" math="0" shadow="0">
      <root>
        <mxCell id="WIyWlLk6GJQsqaUBKTNV-0" />
        <mxCell id="WIyWlLk6GJQsqaUBKTNV-1" parent="WIyWlLk6GJQsqaUBKTNV-0" />
        <mxCell id="Z837jX6OMX7UZ-DM7Egc-13" style="edgeStyle=orthogonalEdgeStyle;rounded=0;orthogonalLoop=1;jettySize=auto;html=1;entryX=0.5;entryY=0;entryDx=0;entryDy=0;" parent="WIyWlLk6GJQsqaUBKTNV-1" source="WIyWlLk6GJQsqaUBKTNV-3" target="Z837jX6OMX7UZ-DM7Egc-12" edge="1">
          <mxGeometry relative="1" as="geometry" />
        </mxCell>
        <mxCell id="WIyWlLk6GJQsqaUBKTNV-3" value="UnvalidatedOrder" style="rounded=1;whiteSpace=wrap;html=1;fontSize=12;glass=0;strokeWidth=1;shadow=0;" parent="WIyWlLk6GJQsqaUBKTNV-1" vertex="1">
          <mxGeometry x="354" y="60" width="120" height="40" as="geometry" />
        </mxCell>
        <mxCell id="Z837jX6OMX7UZ-DM7Egc-21" value="" style="edgeStyle=orthogonalEdgeStyle;rounded=0;orthogonalLoop=1;jettySize=auto;html=1;" parent="WIyWlLk6GJQsqaUBKTNV-1" source="Z837jX6OMX7UZ-DM7Egc-1" target="Z837jX6OMX7UZ-DM7Egc-19" edge="1">
          <mxGeometry relative="1" as="geometry" />
        </mxCell>
        <mxCell id="Z837jX6OMX7UZ-DM7Egc-1" value="ValidatedOrder" style="rounded=0;whiteSpace=wrap;html=1;" parent="WIyWlLk6GJQsqaUBKTNV-1" vertex="1">
          <mxGeometry x="270" y="300" width="110" height="40" as="geometry" />
        </mxCell>
        <mxCell id="Z837jX6OMX7UZ-DM7Egc-2" value="InvalidatedOrder" style="rounded=0;whiteSpace=wrap;html=1;" parent="WIyWlLk6GJQsqaUBKTNV-1" vertex="1">
          <mxGeometry x="450" y="300" width="120" height="40" as="geometry" />
        </mxCell>
        <mxCell id="Z837jX6OMX7UZ-DM7Egc-11" style="edgeStyle=orthogonalEdgeStyle;rounded=0;orthogonalLoop=1;jettySize=auto;html=1;entryX=0.5;entryY=0;entryDx=0;entryDy=0;" parent="WIyWlLk6GJQsqaUBKTNV-1" source="Z837jX6OMX7UZ-DM7Egc-6" target="Z837jX6OMX7UZ-DM7Egc-10" edge="1">
          <mxGeometry relative="1" as="geometry" />
        </mxCell>
        <mxCell id="sNDpAy-qNijJZeWrmYkD-0" value="RegisterOrder" style="edgeLabel;html=1;align=center;verticalAlign=middle;resizable=0;points=[];" vertex="1" connectable="0" parent="Z837jX6OMX7UZ-DM7Egc-11">
          <mxGeometry x="-0.12" relative="1" as="geometry">
            <mxPoint as="offset" />
          </mxGeometry>
        </mxCell>
        <mxCell id="Z837jX6OMX7UZ-DM7Egc-6" value="AvailableOrder" style="rounded=0;whiteSpace=wrap;html=1;" parent="WIyWlLk6GJQsqaUBKTNV-1" vertex="1">
          <mxGeometry x="150" y="550" width="120" height="40" as="geometry" />
        </mxCell>
        <mxCell id="Z837jX6OMX7UZ-DM7Egc-7" value="UnavailableOrder" style="rounded=0;whiteSpace=wrap;html=1;" parent="WIyWlLk6GJQsqaUBKTNV-1" vertex="1">
          <mxGeometry x="390" y="550" width="120" height="40" as="geometry" />
        </mxCell>
        <mxCell id="Z837jX6OMX7UZ-DM7Egc-26" style="edgeStyle=orthogonalEdgeStyle;rounded=0;orthogonalLoop=1;jettySize=auto;html=1;exitX=0.5;exitY=1;exitDx=0;exitDy=0;" parent="WIyWlLk6GJQsqaUBKTNV-1" source="Z837jX6OMX7UZ-DM7Egc-10" edge="1">
          <mxGeometry relative="1" as="geometry">
            <mxPoint x="210" y="770" as="targetPoint" />
          </mxGeometry>
        </mxCell>
        <mxCell id="Z837jX6OMX7UZ-DM7Egc-27" value="To BillingWorkflow" style="edgeLabel;html=1;align=center;verticalAlign=middle;resizable=0;points=[];" parent="Z837jX6OMX7UZ-DM7Egc-26" vertex="1" connectable="0">
          <mxGeometry x="-0.3712" y="1" relative="1" as="geometry">
            <mxPoint as="offset" />
          </mxGeometry>
        </mxCell>
        <mxCell id="Z837jX6OMX7UZ-DM7Egc-10" value="RegisteredOrder" style="rounded=0;whiteSpace=wrap;html=1;" parent="WIyWlLk6GJQsqaUBKTNV-1" vertex="1">
          <mxGeometry x="150" y="660" width="120" height="40" as="geometry" />
        </mxCell>
        <mxCell id="Z837jX6OMX7UZ-DM7Egc-16" style="edgeStyle=orthogonalEdgeStyle;rounded=0;orthogonalLoop=1;jettySize=auto;html=1;exitX=1;exitY=0.5;exitDx=0;exitDy=0;entryX=0.5;entryY=0;entryDx=0;entryDy=0;" parent="WIyWlLk6GJQsqaUBKTNV-1" source="Z837jX6OMX7UZ-DM7Egc-12" target="Z837jX6OMX7UZ-DM7Egc-2" edge="1">
          <mxGeometry relative="1" as="geometry">
            <Array as="points">
              <mxPoint x="510" y="200" />
            </Array>
          </mxGeometry>
        </mxCell>
        <mxCell id="Z837jX6OMX7UZ-DM7Egc-18" value="Invalid data" style="edgeLabel;html=1;align=center;verticalAlign=middle;resizable=0;points=[];" parent="Z837jX6OMX7UZ-DM7Egc-16" vertex="1" connectable="0">
          <mxGeometry x="0.4472" y="-1" relative="1" as="geometry">
            <mxPoint as="offset" />
          </mxGeometry>
        </mxCell>
        <mxCell id="Z837jX6OMX7UZ-DM7Egc-12" value="ValidateEntryData" style="rhombus;whiteSpace=wrap;html=1;" parent="WIyWlLk6GJQsqaUBKTNV-1" vertex="1">
          <mxGeometry x="340" y="160" width="150" height="80" as="geometry" />
        </mxCell>
        <mxCell id="Z837jX6OMX7UZ-DM7Egc-15" style="edgeStyle=orthogonalEdgeStyle;rounded=0;orthogonalLoop=1;jettySize=auto;html=1;exitX=0;exitY=0.5;exitDx=0;exitDy=0;entryX=0.445;entryY=-0.029;entryDx=0;entryDy=0;entryPerimeter=0;" parent="WIyWlLk6GJQsqaUBKTNV-1" source="Z837jX6OMX7UZ-DM7Egc-12" target="Z837jX6OMX7UZ-DM7Egc-1" edge="1">
          <mxGeometry relative="1" as="geometry" />
        </mxCell>
        <mxCell id="Z837jX6OMX7UZ-DM7Egc-17" value="Valid data" style="edgeLabel;html=1;align=center;verticalAlign=middle;resizable=0;points=[];" parent="Z837jX6OMX7UZ-DM7Egc-15" vertex="1" connectable="0">
          <mxGeometry x="0.2155" relative="1" as="geometry">
            <mxPoint as="offset" />
          </mxGeometry>
        </mxCell>
        <mxCell id="Z837jX6OMX7UZ-DM7Egc-22" style="edgeStyle=orthogonalEdgeStyle;rounded=0;orthogonalLoop=1;jettySize=auto;html=1;exitX=0;exitY=0.5;exitDx=0;exitDy=0;entryX=0.5;entryY=0;entryDx=0;entryDy=0;" parent="WIyWlLk6GJQsqaUBKTNV-1" source="Z837jX6OMX7UZ-DM7Egc-19" target="Z837jX6OMX7UZ-DM7Egc-6" edge="1">
          <mxGeometry relative="1" as="geometry" />
        </mxCell>
        <mxCell id="Z837jX6OMX7UZ-DM7Egc-24" value="Available" style="edgeLabel;html=1;align=center;verticalAlign=middle;resizable=0;points=[];" parent="Z837jX6OMX7UZ-DM7Egc-22" vertex="1" connectable="0">
          <mxGeometry x="0.1235" y="-1" relative="1" as="geometry">
            <mxPoint as="offset" />
          </mxGeometry>
        </mxCell>
        <mxCell id="Z837jX6OMX7UZ-DM7Egc-23" style="edgeStyle=orthogonalEdgeStyle;rounded=0;orthogonalLoop=1;jettySize=auto;html=1;exitX=1;exitY=0.5;exitDx=0;exitDy=0;entryX=0.5;entryY=0;entryDx=0;entryDy=0;" parent="WIyWlLk6GJQsqaUBKTNV-1" source="Z837jX6OMX7UZ-DM7Egc-19" target="Z837jX6OMX7UZ-DM7Egc-7" edge="1">
          <mxGeometry relative="1" as="geometry" />
        </mxCell>
        <mxCell id="Z837jX6OMX7UZ-DM7Egc-25" value="Unavailable" style="edgeLabel;html=1;align=center;verticalAlign=middle;resizable=0;points=[];" parent="Z837jX6OMX7UZ-DM7Egc-23" vertex="1" connectable="0">
          <mxGeometry x="0.1537" y="-1" relative="1" as="geometry">
            <mxPoint as="offset" />
          </mxGeometry>
        </mxCell>
        <mxCell id="Z837jX6OMX7UZ-DM7Egc-19" value="CheckForAvailability" style="rhombus;whiteSpace=wrap;html=1;" parent="WIyWlLk6GJQsqaUBKTNV-1" vertex="1">
          <mxGeometry x="250" y="380" width="150" height="80" as="geometry" />
        </mxCell>
      </root>
    </mxGraphModel>
  </diagram>
</mxfile>
